{
  "accessors": [
    {
      "bufferView": 2,
      "componentType": 5126,
      "count": 49,
      "max": [
        5142.9580078125,
        6999.6455078125,
        108.283203125
      ],
      "min": [
        480.124755859375,
        480.128173828125,
        108.27734375
      ],
      "type": "VEC3"
    },
    {
      "bufferView": 2,
      "byteOffset": 588,
      "componentType": 5126,
      "count": 49,
      "max": [
        0,
        9.9999999747524271e-07,
        1
      ],
      "min": [
        0,
        9.9999999747524271e-07,
        1
      ],
      "type": "VEC3"
    },
    {
      "bufferView": 3,
      "componentType": 5126,
      "count": 49,
      "max": [
        -1,
        -4.8375218761331773e-12,
        1.6822148058218134e-12,
        1
      ],
      "min": [
        -1,
        -1.6822150428197347e-06,
        4.8847980613752287e-18,
        1
      ],
      "type": "VEC4"
    },
    {
      "bufferView": 1,
      "componentType": 5126,
      "count": 49,
      "max": [
        0.86044102907180786,
        0.99800002574920654
      ],
      "min": [
        0.14809100329875946,
        0.0020000000949949026
      ],
      "type": "VEC2"
    },
    {
      "bufferView": 0,
      "componentType": 5125,
      "count": 216,
      "max": [
        48
      ],
      "min": [
        0
      ],
      "type": "SCALAR"
    },
    {
      "bufferView": 2,
      "byteOffset": 1176,
      "componentType": 5126,
      "count": 3373,
      "max": [
        5596.513671875,
        7453.19921875,
        420.90673828125
      ],
      "min": [
        26.574462890625,
        26.575439453125,
        285.20703125
      ],
      "type": "VEC3"
    },
    {
      "bufferView": 2,
      "byteOffset": 41652,
      "componentType": 5126,
      "count": 3373,
      "max": [
        1,
        1,
        0.99883401393890381
      ],
      "min": [
        -1,
        -1,
        0
      ],
      "type": "VEC3"
    },
    {
      "bufferView": 3,
      "byteOffset": 784,
      "componentType": 5126,
      "count": 3373,
      "max": [
        1,
        1,
        0.0012644894886761904,
        1
      ],
      "min": [
        -1,
        -1,
        -0.0012671290896832943,
        1
      ],
      "type": "VEC4"
    },
    {
      "bufferView": 1,
      "byteOffset": 392,
      "componentType": 5126,
      "count": 3373,
      "max": [
        1,
        1
      ],
      "min": [
        0,
        0.0074689998291432858
      ],
      "type": "VEC2"
    },
    {
      "bufferView": 0,
      "byteOffset": 864,
      "componentType": 5125,
      "count": 10971,
      "max": [
        3372
      ],
      "min": [
        0
      ],
      "type": "SCALAR"
    },
    {
      "bufferView": 2,
      "byteOffset": 82128,
      "componentType": 5126,
      "count": 3366,
      "max": [
        5601.1337890625,
        7457.8193359375,
        420.90673828125
      ],
      "min": [
        21.954345703125,
        21.955322265625,
        293.73779296875
      ],
      "type": "VEC3"
    },
    {
      "bufferView": 2,
      "byteOffset": 122520,
      "componentType": 5126,
      "count": 3366,
      "max": [
        0.98771536350250244,
        0.98770952224731445,
        1
      ],
      "min": [
        -0.98771047592163086,
        -0.98771536350250244,
        0.15626406669616699
      ],
      "type": "VEC3"
    },
    {
      "bufferView": 3,
      "byteOffset": 54752,
      "componentType": 5126,
      "count": 3366,
      "max": [
        1,
        1,
        0.0098978877067565918,
        1
      ],
      "min": [
        -1,
        -1,
        -0.010601595975458622,
        1
      ],
      "type": "VEC4"
    },
    {
      "bufferView": 1,
      "byteOffset": 27376,
      "componentType": 5126,
      "count": 3366,
      "max": [
        1,
        0.93535101413726807
      ],
      "min": [
        0,
        0
      ],
      "type": "VEC2"
    },
    {
      "bufferView": 0,
      "byteOffset": 44748,
      "componentType": 5125,
      "count": 9570,
      "max": [
        3365
      ],
      "min": [
        0
      ],
      "type": "SCALAR"
    },
    {
      "bufferView": 2,
      "byteOffset": 162912,
      "componentType": 5126,
      "count": 1880,
      "max": [
        5623.087890625,
        7479.7734375,
        458.00927734375
      ],
      "min": [
        0,
        0,
        0
      ],
      "type": "VEC3"
    },
    {
      "bufferView": 2,
      "byteOffset": 185472,
      "componentType": 5126,
      "count": 1880,
      "max": [
        1,
        1,
        1
      ],
      "min": [
        -1,
        -1,
        -1
      ],
      "type": "VEC3"
    },
    {
      "bufferView": 0,
      "byteOffset": 83028,
      "componentType": 5125,
      "count": 4902,
      "max": [
        1879
      ],
      "min": [
        0
      ],
      "type": "SCALAR"
    },
    {
      "bufferView": 2,
      "byteOffset": 208032,
      "componentType": 5126,
      "count": 65532,
      "max": [
        5513.8662109375,
        7370.5517578125,
        270.45263671875
      ],
      "min": [
        109.221435546875,
        109.221435546875,
        257.5068359375
      ],
      "type": "VEC3"
    },
    {
      "bufferView": 2,
      "byteOffset": 994416,
      "componentType": 5126,
      "count": 65532,
      "max": [
        1,
        0.97940665483474731,
        1
      ],
      "min": [
        -1,
        -1,
        -1
      ],
      "type": "VEC3"
    },
    {
      "bufferView": 3,
      "byteOffset": 108608,
      "componentType": 5126,
      "count": 65532,
      "max": [
        1,
        1,
        1,
        1
      ],
      "min": [
        -0.99913382530212402,
        -0.99913221597671509,
        -1,
        -1
      ],
      "type": "VEC4"
    },
    {
      "bufferView": 0,
      "byteOffset": 102636,
      "componentType": 5125,
      "count": 267825,
      "max": [
        65531
      ],
      "min": [
        0
      ],
      "type": "SCALAR"
    },
    {
      "bufferView": 2,
      "byteOffset": 1780800,
      "componentType": 5126,
      "count": 27181,
      "max": [
        5513.8671875,
        7370.5517578125,
        270.451171875
      ],
      "min": [
        109.222412109375,
        109.221435546875,
        257.5068359375
      ],
      "type": "VEC3"
    },
    {
      "bufferView": 2,
      "byteOffset": 2106972,
      "componentType": 5126,
      "count": 27181,
      "max": [
        1,
        1,
        1
      ],
      "min": [
        -0.95075076818466187,
        -0.95073974132537842,
        -1
      ],
      "type": "VEC3"
    },
    {
      "bufferView": 3,
      "byteOffset": 1157120,
      "componentType": 5126,
      "count": 27181,
      "max": [
        0.99913114309310913,
        0.99912697076797485,
        1,
        1
      ],
      "min": [
        -1,
        -1,
        -1,
        -1
      ],
      "type": "VEC4"
    },
    {
      "bufferView": 0,
      "byteOffset": 1173936,
      "componentType": 5125,
      "count": 110979,
      "max": [
        27180
      ],
      "min": [
        0
      ],
      "type": "SCALAR"
    },
    {
      "bufferView": 2,
      "byteOffset": 2433144,
      "componentType": 5126,
      "count": 100,
      "max": [
        5518.3466796875,
        7375.03125,
        270.45263671875
      ],
      "min": [
        104.742431640625,
        104.741943359375,
        255.111328125
      ],
      "type": "VEC3"
    },
    {
      "bufferView": 2,
      "byteOffset": 2434344,
      "componentType": 5126,
      "count": 100,
      "max": [
        1,
        1,
        1
      ],
      "min": [
        -1,
        -1,
        -1
      ],
      "type": "VEC3"
    },
    {
      "bufferView": 3,
      "byteOffset": 1592016,
      "componentType": 5126,
      "count": 100,
      "max": [
        1,
        1,
        1,
        1
      ],
      "min": [
        -1,
        -1,
        -5.2167729336360935e-07,
        -1
      ],
      "type": "VEC4"
    },
    {
      "bufferView": 0,
      "byteOffset": 1617852,
      "componentType": 5125,
      "count": 180,
      "max": [
        99
      ],
      "min": [
        0
      ],
      "type": "SCALAR"
    },
    {
      "bufferView": 2,
      "byteOffset": 2435544,
      "componentType": 5126,
      "count": 4942,
      "max": [
        5253.912109375,
        7110.59765625,
        150.107421875
      ],
      "min": [
        369.175537109375,
        369.176025390625,
        129.88623046875
      ],
      "type": "VEC3"
    },
    {
      "bufferView": 2,
      "byteOffset": 2494848,
      "componentType": 5126,
      "count": 4942,
      "max": [
        0.6656336784362793,
        0.66529422998428345,
        1
      ],
      "min": [
        -0.66526675224304199,
        -0.66528475284576416,
        0.74627864360809326
      ],
      "type": "VEC3"
    },
    {
      "bufferView": 3,
      "byteOffset": 1593616,
      "componentType": 5126,
      "count": 4942,
      "max": [
        1,
        1,
        5.4039679525885731e-05,
        1
      ],
      "min": [
        -1,
        -1,
        -4.8788369895191863e-05,
        1
      ],
      "type": "VEC4"
    },
    {
      "bufferView": 1,
      "byteOffset": 54304,
      "componentType": 5126,
      "count": 4942,
      "max": [
        1,
        0.7293739914894104
      ],
      "min": [
        0,
        0.052749998867511749
      ],
      "type": "VEC2"
    },
    {
      "bufferView": 0,
      "byteOffset": 1618572,
      "componentType": 5125,
      "count": 12714,
      "max": [
        4941
      ],
      "min": [
        0
      ],
      "type": "SCALAR"
    },
    {
      "bufferView": 2,
      "byteOffset": 2554152,
      "componentType": 5126,
      "count": 2806,
      "max": [
        5253.912109375,
        7110.59765625,
        150.107421875
      ],
      "min": [
        369.175537109375,
        369.176025390625,
        124.93994140625
      ],
      "type": "VEC3"
    },
    {
      "bufferView": 2,
      "byteOffset": 2587824,
      "componentType": 5126,
      "count": 2806,
      "max": [
        1,
        1,
        -0
      ],
      "min": [
        -1,
        -1,
        -0
      ],
      "type": "VEC3"
    },
    {
      "bufferView": 3,
      "byteOffset": 1672688,
      "componentType": 5126,
      "count": 2806,
      "max": [
        1,
        1,
        2.1425576051115058e-05,
        1
      ],
      "min": [
        -1,
        -1,
        -2.8129288693889976e-05,
        1
      ],
      "type": "VEC4"
    },
    {
      "bufferView": 1,
      "byteOffset": 93840,
      "componentType": 5126,
      "count": 2806,
      "max": [
        1,
        0.99599999189376831
      ],
      "min": [
        0,
        0
      ],
      "type": "VEC2"
    },
    {
      "bufferView": 0,
      "byteOffset": 1669428,
      "componentType": 5125,
      "count": 4230,
      "max": [
        2805
      ],
      "min": [
        0
      ],
      "type": "SCALAR"
    }
  ],
  "asset": {
    "extras": {
      "author": "Lepdecor (https://sketchfab.com/lepdecor)",
      "license": "CC-BY-4.0 (http://creativecommons.org/licenses/by/4.0/)",
      "source": "https://sketchfab.com/models/a89db70d6b044a73aa0b125e961d52ce",
      "title": "потолок \"Барокко\""
    },
    "generator": "Sketchfab-3.19.5",
    "version": "2.0"
  },
  "bufferViews": [
    {
      "buffer": 0,
      "byteLength": 1686348,
      "byteOffset": 0,
      "name": "floatBufferViews",
      "target": 34963
    },
    {
      "buffer": 0,
      "byteLength": 116288,
      "byteOffset": 1686348,
      "byteStride": 8,
      "name": "floatBufferViews",
      "target": 34962
    },
    {
      "buffer": 0,
      "byteLength": 2621496,
      "byteOffset": 1802636,
      "byteStride": 12,
      "name": "floatBufferViews",
      "target": 34962
    },
    {
      "buffer": 0,
      "byteLength": 1717584,
      "byteOffset": 4424132,
      "byteStride": 16,
      "name": "floatBufferViews",
      "target": 34962
    }
  ],
  "buffers": [
    {
      "byteLength": 6141716,
      "uri": "scene.bin"
    }
  ],
  "images": [
    {
      "uri": "textures/wire_028149177_normal.jpeg"
    },
    {
      "uri": "textures/wire_028149177_baseColor.jpeg"
    },
    {
      "uri": "textures/wire_213154229_normal.png"
    },
    {
      "uri": "textures/wire_213154229_baseColor.jpeg"
    },
    {
      "uri": "textures/wire_008008136_normal.png"
    },
    {
      "uri": "textures/wire_008008136_baseColor.jpeg"
    }
  ],
  "materials": [
    {
      "doubleSided": true,
      "emissiveFactor": [
        0,
        0,
        0
      ],
      "name": "wire_008008136",
      "normalTexture": {
        "index": 4,
        "scale": 1,
        "texCoord": 0
      },
      "pbrMetallicRoughness": {
        "baseColorFactor": [
          1,
          1,
          1,
          1
        ],
        "baseColorTexture": {
          "index": 5,
          "texCoord": 0
        },
        "metallicFactor": 0,
        "roughnessFactor": 0
      }
    },
    {
      "doubleSided": true,
      "emissiveFactor": [
        0,
        0,
        0
      ],
      "name": "wire_028149177",
      "normalTexture": {
        "index": 0,
        "scale": 1,
        "texCoord": 0
      },
      "pbrMetallicRoughness": {
        "baseColorFactor": [
          1,
          1,
          1,
          1
        ],
        "baseColorTexture": {
          "index": 1,
          "texCoord": 0
        },
        "metallicFactor": 0,
        "roughnessFactor": 1
      }
    },
    {
      "doubleSided": true,
      "emissiveFactor": [
        0,
        0,
        0
      ],
      "name": "wire_177088027",
      "pbrMetallicRoughness": {
        "baseColorFactor": [
          1,
          1,
          1,
          1
        ],
        "metallicFactor": 0,
        "roughnessFactor": 0
      }
    },
    {
      "doubleSided": true,
      "emissiveFactor": [
        0,
        0,
        0
      ],
      "name": "wire_184155229",
      "pbrMetallicRoughness": {
        "baseColorFactor": [
          1,
          1,
          1,
          1
        ],
        "metallicFactor": 0,
        "roughnessFactor": 0
      }
    },
    {
      "doubleSided": true,
      "emissiveFactor": [
        0,
        0,
        0
      ],
      "name": "wire_213154229",
      "normalTexture": {
        "index": 2,
        "scale": 1,
        "texCoord": 0
      },
      "pbrMetallicRoughness": {
        "baseColorFactor": [
          1,
          1,
          1,
          1
        ],
        "baseColorTexture": {
          "index": 3,
          "texCoord": 0
        },
        "metallicFactor": 0,
        "roughnessFactor": 0.59999999999999998
      }
    }
  ],
  "meshes": [
    {
      "primitives": [
        {
          "attributes": {
            "NORMAL": 1,
            "POSITION": 0,
            "TANGENT": 2,
            "TEXCOORD_0": 3
          },
          "indices": 4,
          "material": 1,
          "mode": 4
        }
      ]
    },
    {
      "primitives": [
        {
          "attributes": {
            "NORMAL": 6,
            "POSITION": 5,
            "TANGENT": 7,
            "TEXCOORD_0": 8
          },
          "indices": 9,
          "material": 0,
          "mode": 4
        }
      ]
    },
    {
      "primitives": [
        {
          "attributes": {
            "NORMAL": 11,
            "POSITION": 10,
            "TANGENT": 12,
            "TEXCOORD_0": 13
          },
          "indices": 14,
          "material": 0,
          "mode": 4
        }
      ]
    },
    {
      "primitives": [
        {
          "attributes": {
            "NORMAL": 16,
            "POSITION": 15
          },
          "indices": 17,
          "material": 2,
          "mode": 4
        }
      ]
    },
    {
      "primitives": [
        {
          "attributes": {
            "NORMAL": 19,
            "POSITION": 18,
            "TANGENT": 20
          },
          "indices": 21,
          "material": 3,
          "mode": 4
        }
      ]
    },
    {
      "primitives": [
        {
          "attributes": {
            "NORMAL": 23,
            "POSITION": 22,
            "TANGENT": 24
          },
          "indices": 25,
          "material": 3,
          "mode": 4
        }
      ]
    },
    {
      "primitives": [
        {
          "attributes": {
            "NORMAL": 27,
            "POSITION": 26,
            "TANGENT": 28
          },
          "indices": 29,
          "material": 3,
          "mode": 4
        }
      ]
    },
    {
      "primitives": [
        {
          "attributes": {
            "NORMAL": 31,
            "POSITION": 30,
            "TANGENT": 32,
            "TEXCOORD_0": 33
          },
          "indices": 34,
          "material": 4,
          "mode": 4
        }
      ]
    },
    {
      "primitives": [
        {
          "attributes": {
            "NORMAL": 36,
            "POSITION": 35,
            "TANGENT": 37,
            "TEXCOORD_0": 38
          },
          "indices": 39,
          "material": 4,
          "mode": 4
        }
      ]
    }
  ],
  "nodes": [
    {
      "children": [
        1
      ],
      "name": "RootNode (gltf orientation matrix)",
      "rotation": [
        -0.70710678118654746,
        -0,
        -0,
        0.70710678118654757
      ]
    },
    {
      "children": [
        2
      ],
      "matrix": [
        1,
        0,
        0,
        0,
        0,
        -1,
        0,
        0,
        0,
        0,
        -1,
        0,
        0,
        1774.528564453125,
        12261.291015625,
        1
      ],
      "name": "RootNode (model correction matrix)"
    },
    {
      "children": [
        3
      ],
      "matrix": [
        1,
        0,
        0,
        0,
        0,
        1,
        0,
        0,
        0,
        0,
        1,
        0,
        -671.075439453125,
        -2852.632568359375,
        5901.64306640625,
        1
      ],
      "name": "lp barocco.obj.cleaner.gles"
    },
    {
      "children": [
        4,
        5,
        6,
        7,
        8,
        9,
        10,
        11,
        12
      ],
      "name": ""
    },
    {
      "mesh": 0,
      "name": ""
    },
    {
      "mesh": 1,
      "name": ""
    },
    {
      "mesh": 2,
      "name": ""
    },
    {
      "mesh": 3,
      "name": ""
    },
    {
      "mesh": 4,
      "name": ""
    },
    {
      "mesh": 5,
      "name": ""
    },
    {
      "mesh": 6,
      "name": ""
    },
    {
      "mesh": 7,
      "name": ""
    },
    {
      "mesh": 8,
      "name": ""
    }
  ],
  "samplers": [
    {
      "magFilter": 9729,
      "minFilter": 9987,
      "wrapS": 10497,
      "wrapT": 10497
    }
  ],
  "scene": 0,
  "scenes": [
    {
      "name": "OSG_Scene",
      "nodes": [
        0
      ]
    }
  ],
  "textures": [
    {
      "sampler": 0,
      "source": 0
    },
    {
      "sampler": 0,
      "source": 1
    },
    {
      "sampler": 0,
      "source": 2
    },
    {
      "sampler": 0,
      "source": 3
    },
    {
      "sampler": 0,
      "source": 4
    },
    {
      "sampler": 0,
      "source": 5
    }
  ]
}

